<svg width="77" height="11" viewBox="0 0 77 11" fill="none" xmlns="http://www.w3.org/2000/svg">
<path d="M4.25 2.77084V7.72918" stroke="#00A1D5" stroke-linecap="round" stroke-linejoin="round"/>
<path d="M1.77081 5.25H6.72915" stroke="#00A1D5" stroke-linecap="round" stroke-linejoin="round"/>
<path d="M14.977 7.317H11.467L10.711 9H10.018L12.898 2.7H13.555L16.435 9H15.733L14.977 7.317ZM14.734 6.777L13.222 3.393L11.71 6.777H14.734ZM21.6182 2.322V9H21.0062V8.064C20.8142 8.382 20.5592 8.625 20.2412 8.793C19.9292 8.961 19.5752 9.045 19.1792 9.045C18.7352 9.045 18.3332 8.943 17.9732 8.739C17.6132 8.535 17.3312 8.25 17.1272 7.884C16.9232 7.518 16.8212 7.101 16.8212 6.633C16.8212 6.165 16.9232 5.748 17.1272 5.382C17.3312 5.016 17.6132 4.734 17.9732 4.536C18.3332 4.332 18.7352 4.23 19.1792 4.23C19.5632 4.23 19.9082 4.311 20.2142 4.473C20.5262 4.629 20.7812 4.86 20.9792 5.166V2.322H21.6182ZM19.2332 8.478C19.5632 8.478 19.8602 8.403 20.1242 8.253C20.3942 8.097 20.6042 7.878 20.7542 7.596C20.9102 7.314 20.9882 6.993 20.9882 6.633C20.9882 6.273 20.9102 5.952 20.7542 5.67C20.6042 5.388 20.3942 5.172 20.1242 5.022C19.8602 4.866 19.5632 4.788 19.2332 4.788C18.8972 4.788 18.5942 4.866 18.3242 5.022C18.0602 5.172 17.8502 5.388 17.6942 5.67C17.5442 5.952 17.4692 6.273 17.4692 6.633C17.4692 6.993 17.5442 7.314 17.6942 7.596C17.8502 7.878 18.0602 8.097 18.3242 8.253C18.5942 8.403 18.8972 8.478 19.2332 8.478ZM23.3978 4.266H24.0368V9H23.3978V4.266ZM23.7218 3.231C23.5898 3.231 23.4788 3.186 23.3888 3.096C23.2988 3.006 23.2538 2.898 23.2538 2.772C23.2538 2.652 23.2988 2.547 23.3888 2.457C23.4788 2.367 23.5898 2.322 23.7218 2.322C23.8538 2.322 23.9648 2.367 24.0548 2.457C24.1448 2.541 24.1898 2.643 24.1898 2.763C24.1898 2.895 24.1448 3.006 24.0548 3.096C23.9648 3.186 23.8538 3.231 23.7218 3.231ZM27.7768 9.045C27.3088 9.045 26.8888 8.943 26.5168 8.739C26.1508 8.535 25.8628 8.25 25.6528 7.884C25.4428 7.512 25.3378 7.095 25.3378 6.633C25.3378 6.171 25.4428 5.757 25.6528 5.391C25.8628 5.025 26.1508 4.74 26.5168 4.536C26.8888 4.332 27.3088 4.23 27.7768 4.23C28.1848 4.23 28.5478 4.311 28.8658 4.473C29.1898 4.629 29.4448 4.86 29.6308 5.166L29.1538 5.49C28.9978 5.256 28.7998 5.082 28.5598 4.968C28.3198 4.848 28.0588 4.788 27.7768 4.788C27.4348 4.788 27.1258 4.866 26.8498 5.022C26.5798 5.172 26.3668 5.388 26.2108 5.67C26.0608 5.952 25.9858 6.273 25.9858 6.633C25.9858 6.999 26.0608 7.323 26.2108 7.605C26.3668 7.881 26.5798 8.097 26.8498 8.253C27.1258 8.403 27.4348 8.478 27.7768 8.478C28.0588 8.478 28.3198 8.421 28.5598 8.307C28.7998 8.193 28.9978 8.019 29.1538 7.785L29.6308 8.109C29.4448 8.415 29.1898 8.649 28.8658 8.811C28.5418 8.967 28.1788 9.045 27.7768 9.045ZM30.8861 4.266H31.5251V9H30.8861V4.266ZM31.2101 3.231C31.0781 3.231 30.9671 3.186 30.8771 3.096C30.7871 3.006 30.7421 2.898 30.7421 2.772C30.7421 2.652 30.7871 2.547 30.8771 2.457C30.9671 2.367 31.0781 2.322 31.2101 2.322C31.3421 2.322 31.4531 2.367 31.5431 2.457C31.6331 2.541 31.6781 2.643 31.6781 2.763C31.6781 2.895 31.6331 3.006 31.5431 3.096C31.4531 3.186 31.3421 3.231 31.2101 3.231ZM35.2381 9.045C34.7821 9.045 34.3711 8.943 34.0051 8.739C33.6391 8.529 33.3511 8.241 33.1411 7.875C32.9311 7.509 32.8261 7.095 32.8261 6.633C32.8261 6.171 32.9311 5.757 33.1411 5.391C33.3511 5.025 33.6391 4.74 34.0051 4.536C34.3711 4.332 34.7821 4.23 35.2381 4.23C35.6941 4.23 36.1051 4.332 36.4711 4.536C36.8371 4.74 37.1221 5.025 37.3261 5.391C37.5361 5.757 37.6411 6.171 37.6411 6.633C37.6411 7.095 37.5361 7.509 37.3261 7.875C37.1221 8.241 36.8371 8.529 36.4711 8.739C36.1051 8.943 35.6941 9.045 35.2381 9.045ZM35.2381 8.478C35.5741 8.478 35.8741 8.403 36.1381 8.253C36.4081 8.097 36.6181 7.878 36.7681 7.596C36.9181 7.314 36.9931 6.993 36.9931 6.633C36.9931 6.273 36.9181 5.952 36.7681 5.67C36.6181 5.388 36.4081 5.172 36.1381 5.022C35.8741 4.866 35.5741 4.788 35.2381 4.788C34.9021 4.788 34.5991 4.866 34.3291 5.022C34.0651 5.172 33.8551 5.388 33.6991 5.67C33.5491 5.952 33.4741 6.273 33.4741 6.633C33.4741 6.993 33.5491 7.314 33.6991 7.596C33.8551 7.878 34.0651 8.097 34.3291 8.253C34.5991 8.403 34.9021 8.478 35.2381 8.478ZM41.3577 4.23C41.9517 4.23 42.4227 4.404 42.7707 4.752C43.1247 5.094 43.3017 5.595 43.3017 6.255V9H42.6627V6.318C42.6627 5.826 42.5397 5.451 42.2937 5.193C42.0477 4.935 41.6967 4.806 41.2407 4.806C40.7307 4.806 40.3257 4.959 40.0257 5.265C39.7317 5.565 39.5847 5.982 39.5847 6.516V9H38.9457V4.266H39.5577V5.139C39.7317 4.851 39.9717 4.629 40.2777 4.473C40.5897 4.311 40.9497 4.23 41.3577 4.23ZM46.6925 4.23C47.3105 4.23 47.7845 4.386 48.1145 4.698C48.4445 5.004 48.6095 5.46 48.6095 6.066V9H47.9975V8.262C47.8535 8.508 47.6405 8.7 47.3585 8.838C47.0825 8.976 46.7525 9.045 46.3685 9.045C45.8405 9.045 45.4205 8.919 45.1085 8.667C44.7965 8.415 44.6405 8.082 44.6405 7.668C44.6405 7.266 44.7845 6.942 45.0725 6.696C45.3665 6.45 45.8315 6.327 46.4675 6.327H47.9705V6.039C47.9705 5.631 47.8565 5.322 47.6285 5.112C47.4005 4.896 47.0675 4.788 46.6295 4.788C46.3295 4.788 46.0415 4.839 45.7655 4.941C45.4895 5.037 45.2525 5.172 45.0545 5.346L44.7665 4.869C45.0065 4.665 45.2945 4.509 45.6305 4.401C45.9665 4.287 46.3205 4.23 46.6925 4.23ZM46.4675 8.541C46.8275 8.541 47.1365 8.46 47.3945 8.298C47.6525 8.13 47.8445 7.89 47.9705 7.578V6.804H46.4855C45.6755 6.804 45.2705 7.086 45.2705 7.65C45.2705 7.926 45.3755 8.145 45.5855 8.307C45.7955 8.463 46.0895 8.541 46.4675 8.541ZM50.9571 5.193C51.1071 4.875 51.3291 4.635 51.6231 4.473C51.9231 4.311 52.2921 4.23 52.7301 4.23V4.851L52.5771 4.842C52.0791 4.842 51.6891 4.995 51.4071 5.301C51.1251 5.607 50.9841 6.036 50.9841 6.588V9H50.3451V4.266H50.9571V5.193ZM56.3129 4.266H56.9519V9H56.3129V4.266ZM56.6369 3.231C56.5049 3.231 56.3939 3.186 56.3039 3.096C56.2139 3.006 56.1689 2.898 56.1689 2.772C56.1689 2.652 56.2139 2.547 56.3039 2.457C56.3939 2.367 56.5049 2.322 56.6369 2.322C56.7689 2.322 56.8799 2.367 56.9699 2.457C57.0599 2.541 57.1049 2.643 57.1049 2.763C57.1049 2.895 57.0599 3.006 56.9699 3.096C56.8799 3.186 56.7689 3.231 56.6369 3.231ZM61.2229 8.712C61.1029 8.82 60.9529 8.904 60.7729 8.964C60.5989 9.018 60.4159 9.045 60.2239 9.045C59.7799 9.045 59.4379 8.925 59.1979 8.685C58.9579 8.445 58.8379 8.106 58.8379 7.668V4.806H57.9919V4.266H58.8379V3.231H59.4769V4.266H60.9169V4.806H59.4769V7.632C59.4769 7.914 59.5459 8.13 59.6839 8.28C59.8279 8.424 60.0319 8.496 60.2959 8.496C60.4279 8.496 60.5539 8.475 60.6739 8.433C60.7999 8.391 60.9079 8.331 60.9979 8.253L61.2229 8.712ZM66.3411 6.831H62.3811C62.4171 7.323 62.6061 7.722 62.9481 8.028C63.2901 8.328 63.7221 8.478 64.2441 8.478C64.5381 8.478 64.8081 8.427 65.0541 8.325C65.3001 8.217 65.5131 8.061 65.6931 7.857L66.0531 8.271C65.8431 8.523 65.5791 8.715 65.2611 8.847C64.9491 8.979 64.6041 9.045 64.2261 9.045C63.7401 9.045 63.3081 8.943 62.9301 8.739C62.5581 8.529 62.2671 8.241 62.0571 7.875C61.8471 7.509 61.7421 7.095 61.7421 6.633C61.7421 6.171 61.8411 5.757 62.0391 5.391C62.2431 5.025 62.5191 4.74 62.8671 4.536C63.2211 4.332 63.6171 4.23 64.0551 4.23C64.4931 4.23 64.8861 4.332 65.2341 4.536C65.5821 4.74 65.8551 5.025 66.0531 5.391C66.2511 5.751 66.3501 6.165 66.3501 6.633L66.3411 6.831ZM64.0551 4.779C63.5991 4.779 63.2151 4.926 62.9031 5.22C62.5971 5.508 62.4231 5.886 62.3811 6.354H65.7381C65.6961 5.886 65.5191 5.508 65.2071 5.22C64.9011 4.926 64.5171 4.779 64.0551 4.779ZM73.5548 4.23C74.1488 4.23 74.6138 4.401 74.9498 4.743C75.2918 5.085 75.4628 5.589 75.4628 6.255V9H74.8238V6.318C74.8238 5.826 74.7038 5.451 74.4638 5.193C74.2298 4.935 73.8968 4.806 73.4648 4.806C72.9728 4.806 72.5858 4.959 72.3038 5.265C72.0218 5.565 71.8808 5.982 71.8808 6.516V9H71.2418V6.318C71.2418 5.826 71.1218 5.451 70.8818 5.193C70.6478 4.935 70.3118 4.806 69.8738 4.806C69.3878 4.806 69.0008 4.959 68.7128 5.265C68.4308 5.565 68.2898 5.982 68.2898 6.516V9H67.6508V4.266H68.2628V5.13C68.4308 4.842 68.6648 4.62 68.9648 4.464C69.2648 4.308 69.6098 4.23 69.9998 4.23C70.3958 4.23 70.7378 4.314 71.0258 4.482C71.3198 4.65 71.5388 4.899 71.6828 5.229C71.8568 4.917 72.1058 4.674 72.4298 4.5C72.7598 4.32 73.1348 4.23 73.5548 4.23Z" fill="#00A1D5"/>
</svg>
