<svg width="14" height="14" viewBox="0 0 14 14" fill="none" xmlns="http://www.w3.org/2000/svg">
<path d="M6.41666 2.33333H2.33333C2.02391 2.33333 1.72717 2.45625 1.50837 2.67504C1.28958 2.89383 1.16666 3.19058 1.16666 3.5V11.6667C1.16666 11.9761 1.28958 12.2728 1.50837 12.4916C1.72717 12.7104 2.02391 12.8333 2.33333 12.8333H10.5C10.8094 12.8333 11.1062 12.7104 11.325 12.4916C11.5437 12.2728 11.6667 11.9761 11.6667 11.6667V7.58333" stroke="#00A1D5" stroke-opacity="0.61" stroke-linecap="round" stroke-linejoin="round"/>
<path d="M10.7917 1.45833C11.0237 1.22627 11.3385 1.0959 11.6667 1.0959C11.9949 1.0959 12.3096 1.22627 12.5417 1.45833C12.7737 1.6904 12.9041 2.00515 12.9041 2.33333C12.9041 2.66152 12.7737 2.97627 12.5417 3.20833L7 8.75L4.66667 9.33333L5.25 7L10.7917 1.45833Z" stroke="#00A1D5" stroke-opacity="0.61" stroke-linecap="round" stroke-linejoin="round"/>
</svg>
