<svg width="10" height="10" viewBox="0 0 10 10" fill="none" xmlns="http://www.w3.org/2000/svg">
<path d="M4.58331 1.66669H1.66665C1.44563 1.66669 1.23367 1.75448 1.07739 1.91076C0.92111 2.06704 0.833313 2.27901 0.833313 2.50002V8.33335C0.833313 8.55437 0.92111 8.76633 1.07739 8.92261C1.23367 9.07889 1.44563 9.16669 1.66665 9.16669H7.49998C7.72099 9.16669 7.93295 9.07889 8.08923 8.92261C8.24551 8.76633 8.33331 8.55437 8.33331 8.33335V5.41669" stroke="black" stroke-linecap="round" stroke-linejoin="round"/>
<path d="M7.70831 1.04166C7.87407 0.875899 8.09889 0.782776 8.33331 0.782776C8.56773 0.782776 8.79255 0.875899 8.95831 1.04166C9.12407 1.20742 9.2172 1.43224 9.2172 1.66666C9.2172 1.90108 9.12407 2.1259 8.95831 2.29166L4.99998 6.24999L3.33331 6.66666L3.74998 4.99999L7.70831 1.04166Z" stroke="black" stroke-linecap="round" stroke-linejoin="round"/>
</svg>
