<svg width="244" height="65" viewBox="0 0 244 65" fill="none" xmlns="http://www.w3.org/2000/svg">
<path d="M13.2896 0.0673752C11.9596 0.325451 11.0037 1.95993 11.2738 3.46537L11.4193 4.21809H6.32798C1.34057 4.21809 1.23666 4.21809 0.737923 4.69122C0.2184 5.18587 -0.25956 6.54076 0.176839 6.26118C0.322305 6.15365 0.384647 7.44403 0.384647 10.4549C0.363867 13.5088 0.426209 14.8637 0.613237 15.1003C0.779484 15.3153 0.800265 15.4659 0.613237 15.7024C0.44699 15.9175 0.384647 21.251 0.426209 35.7033C0.488552 52.005 0.44699 55.403 0.2184 55.403C0.0521532 55.403 -0.0309704 55.532 0.0105914 55.6611C0.0937149 55.8761 4.56161 55.9622 21.311 56.0052L42.5075 56.0482L42.7569 56.973C43.5466 59.6827 45.6454 62.199 48.1184 63.4248C49.4899 64.0915 49.6146 64.113 52.3369 64.113C55.0592 64.113 55.1839 64.0915 56.5554 63.4248C58.5296 62.4571 60.2544 60.6935 61.2311 58.6504L62 57.0375V54.1341C62 51.2953 61.9792 51.1663 61.335 49.7469C60.1713 47.2091 57.7191 45.0155 55.1423 44.2197L54.3111 43.9617L54.3734 25.3372C54.3942 15.0788 54.3734 6.36871 54.3111 5.96009C54.2279 5.57298 53.9578 5.01382 53.6876 4.73423C53.1889 4.21808 53.1889 4.21809 48.1184 4.21809H43.027L42.9439 2.82018C42.8816 1.74487 42.7569 1.31474 42.362 0.884613C41.3438 -0.233711 39.4319 -0.233711 38.4137 0.884613C38.0188 1.31474 37.8942 1.72336 37.8318 2.82018L37.7487 4.21809H27.1712H16.5937V3.2503C16.5937 0.992142 15.243 -0.31974 13.2896 0.0673752ZM41.8633 1.98143C42.2166 2.84169 42.2581 6.28268 41.9464 7.14294C41.6555 7.91716 41.1568 8.28277 40.3879 8.28277C39.619 8.28277 39.1202 7.91716 38.8293 7.14294C38.5384 6.3257 38.5591 2.64812 38.8709 1.93842C39.4735 0.60503 41.323 0.626537 41.8633 1.98143ZM15.0767 1.46528C15.5339 1.89541 15.5547 2.08896 15.5547 4.58369C15.5547 7.12143 15.5339 7.27197 15.0352 7.76662C14.7235 8.11072 14.2871 8.30428 13.8922 8.30428C13.4974 8.30428 13.061 8.11072 12.7493 7.76662C12.2505 7.27197 12.2298 7.12143 12.2298 4.69122C12.2298 2.41156 12.2713 2.06746 12.6662 1.55131C13.2272 0.820095 14.3702 0.777081 15.0767 1.46528ZM11.2738 5.61599C10.9206 7.05692 11.8765 8.75591 13.2896 9.18603C13.9754 9.40109 14.2247 9.37959 14.8689 9.0785C15.9911 8.54084 16.4483 7.78812 16.5522 6.3257L16.6353 5.07833H27.2128H37.7903V6.23967C37.7903 7.6806 38.3929 8.69139 39.5359 9.14302C40.2216 9.4226 40.4502 9.4226 41.1775 9.14302C42.362 8.71289 42.9855 7.72361 42.9855 6.23967V5.07833H47.8066C51.9836 5.07833 52.6694 5.12135 53.0019 5.44394C53.3344 5.76654 53.3759 6.19666 53.3759 10.3904V14.9712H27.1504H0.90417L0.966512 10.3044C1.00807 6.21817 1.07042 5.57298 1.36135 5.33641C1.61072 5.14285 3.00304 5.07833 6.55657 5.07833H11.3985L11.2738 5.61599ZM53.3759 29.8105V43.7896H52.1914C49.573 43.7896 47.4118 44.7789 45.3545 46.8865C43.318 49.0156 42.362 51.2523 42.362 53.9621V55.1879L21.6851 55.1449L1.00807 55.0804V35.5527C1.00807 24.8211 1.00807 16.0035 1.00807 15.939C1.00807 15.8745 12.7908 15.8315 27.192 15.8315H53.3759V29.8105ZM56.1398 45.6607C57.9893 46.5639 59.631 48.2629 60.5038 50.177C61.1272 51.5534 61.1688 51.7684 61.1688 54.1126C61.1688 56.4568 61.1272 56.6719 60.5038 58.0483C59.631 59.9623 57.9893 61.6613 56.1398 62.5646C54.8098 63.2098 54.602 63.2528 52.3369 63.2528C50.0718 63.2528 49.864 63.2098 48.534 62.5646C41.0944 58.9085 41.8633 47.8543 49.7393 45.1445C50.2588 44.9725 51.3394 44.8864 52.6486 44.9294C54.4773 44.9725 54.8929 45.0585 56.1398 45.6607Z" fill="white"/>
<path d="M18.1939 20.7349C17.9029 21.079 17.8406 21.6597 17.8406 24.477C17.8406 27.4234 17.8821 27.8535 18.2146 28.1546C18.7757 28.6707 24.9061 28.6922 25.4048 28.1761C25.9036 27.6814 25.9036 21.1865 25.4048 20.6919C25.1347 20.4123 24.5112 20.3478 21.8097 20.3478C18.9004 20.3478 18.4848 20.3908 18.1939 20.7349ZM24.8022 24.4125V27.4664L21.8305 27.5094L18.8796 27.5524V24.434V21.3156L21.8513 21.3371L24.8022 21.3586V24.4125Z" fill="white"/>
<path d="M28.8545 20.7779C28.4805 21.165 28.4389 21.4876 28.4389 24.391C28.4389 28.7783 28.2103 28.5202 32.3665 28.5202C34.6524 28.5202 35.733 28.4342 35.9824 28.2406C36.2733 28.0255 36.3356 27.4879 36.3564 24.4555C36.3772 21.2941 36.3356 20.8855 36.0031 20.6274C35.733 20.4338 34.7355 20.3478 32.4496 20.3478C29.5403 20.3478 29.2286 20.3908 28.8545 20.7779ZM35.4005 24.434V27.4664H32.4912H29.5818L29.5195 24.6275C29.4987 23.0576 29.4987 21.6597 29.5403 21.5522C29.6026 21.4016 30.6624 21.3371 32.5119 21.3371L35.4005 21.3801V24.434Z" fill="white"/>
<path d="M39.5774 20.6919C39.3072 20.9715 39.2449 21.6167 39.2449 24.434C39.2449 27.2513 39.3072 27.8965 39.5774 28.1761C39.8475 28.4557 40.4709 28.5202 43.1932 28.5202C47.3702 28.5202 47.1416 28.7567 47.1416 24.434C47.1416 20.1112 47.3702 20.3478 43.1932 20.3478C40.4709 20.3478 39.8475 20.4123 39.5774 20.6919ZM46.1026 24.434V27.5524L43.1517 27.5094L40.18 27.4664L40.1177 24.6275C40.0969 23.0576 40.0969 21.6597 40.1385 21.5521C40.2008 21.4016 41.3022 21.3156 43.1725 21.3156H46.1026V24.434Z" fill="white"/>
<path d="M7.69949 31.6601C7.26309 31.9827 7.24231 32.1117 7.24231 35.4882C7.24231 38.2625 7.30465 39.0582 7.53324 39.2518C7.72027 39.4238 8.96712 39.5098 11.2115 39.5314C14.2455 39.5529 14.6195 39.5098 14.8689 39.1442C15.0559 38.8647 15.139 37.8754 15.139 35.4667C15.139 31.1009 15.3469 31.316 11.2322 31.316C8.80088 31.316 8.07355 31.3805 7.69949 31.6601ZM14.1 35.5097V38.6281H11.0868H8.07355V35.5097V32.3913H11.0868H14.1V35.5097Z" fill="white"/>
<path d="M18.6718 31.4665C17.9445 31.7461 17.8406 32.2192 17.8406 35.5097C17.8406 37.8754 17.9237 38.8647 18.1107 39.1443C18.3601 39.5099 18.7134 39.5314 21.7889 39.5099C23.8463 39.4884 25.3009 39.3808 25.4672 39.2303C25.675 39.0582 25.7373 38.0905 25.7373 35.4882C25.7373 31.0579 25.9659 31.316 21.8929 31.3375C20.2927 31.3375 18.8381 31.402 18.6718 31.4665ZM24.9061 35.5097V38.6281H21.8929H18.8796V35.5097V32.3913H21.8929H24.9061V35.5097Z" fill="white"/>
<path d="M28.9584 31.8536C28.4597 32.3483 28.4389 32.4773 28.4389 35.4667C28.4389 39.7034 28.2103 39.4668 32.4704 39.5099C35.1096 39.5314 35.8161 39.4668 36.0655 39.2088C36.3149 38.9507 36.3772 38.2195 36.3564 35.4882C36.3149 31.0794 36.5435 31.316 32.4496 31.316C29.5611 31.316 29.4364 31.3375 28.9584 31.8536ZM35.5044 35.5097V38.6281H32.4912H29.478V35.5097V32.3913H32.4912H35.5044V35.5097Z" fill="white"/>
<path d="M39.7228 31.6386C39.2657 31.9827 39.2449 32.1117 39.2449 35.4882C39.2449 38.241 39.3072 39.0582 39.5358 39.2518C39.7228 39.4238 40.9697 39.5098 43.214 39.5098C46.2273 39.5314 46.6221 39.4883 46.8715 39.1442C47.2663 38.5851 47.2455 32.4128 46.8507 31.8321C46.5805 31.4665 46.248 31.4235 43.3595 31.359C40.6995 31.316 40.0969 31.359 39.7228 31.6386ZM46.1026 35.5097V38.6281H43.0893H40.0761V35.5097V32.3913H43.0893H46.1026V35.5097Z" fill="white"/>
<path d="M7.5748 42.8433C7.30465 43.1229 7.24231 43.7681 7.24231 46.5639C7.24231 49.5748 7.28387 50.0049 7.61637 50.306C7.94886 50.6071 8.50994 50.6716 11.1491 50.6716C15.3469 50.6716 15.139 50.8867 15.139 46.5209C15.139 43.596 15.0975 43.1659 14.765 42.8648C14.2039 42.3487 8.07355 42.3272 7.5748 42.8433ZM14.1 46.5209V49.7038L11.1491 49.6608L8.17745 49.6178L8.11511 46.779C8.09433 45.209 8.11511 43.7896 8.15667 43.6391C8.23979 43.424 8.9879 43.3595 11.1907 43.3595H14.1V46.5209Z" fill="white"/>
<path d="M18.1939 42.8863C17.9029 43.2304 17.8406 43.8111 17.8406 46.4994C17.8406 50.9297 17.5912 50.6716 21.789 50.6716C24.5112 50.6716 25.1347 50.6071 25.4048 50.3275C25.9036 49.8329 25.9036 43.338 25.4048 42.8433C25.1347 42.5637 24.5112 42.4992 21.8097 42.4992C18.9004 42.4992 18.4848 42.5422 18.1939 42.8863ZM24.8022 46.5209C24.8022 48.2199 24.7398 49.5963 24.6567 49.5963C24.5528 49.5963 23.2228 49.5963 21.685 49.5963H18.8796V46.4779V43.338L21.8513 43.4025L24.8022 43.467V46.5209Z" fill="white"/>
<path d="M28.7506 43.0154C28.4597 43.467 28.4181 44.1122 28.4805 46.8005C28.5428 49.7254 28.5844 50.091 28.9376 50.3705C29.4987 50.7792 35.4628 50.8007 36.0031 50.392C36.3149 50.1555 36.3564 49.7038 36.3564 46.6069C36.3564 44.2413 36.2733 43.0154 36.107 42.8003C35.92 42.5638 35.1511 42.4992 32.4704 42.4992C29.1039 42.4992 29.0623 42.4992 28.7506 43.0154ZM35.5044 46.4779V49.5963H32.4912H29.4779V46.4779V43.3595H32.4912H35.5044V46.4779Z" fill="white"/>
<path d="M52.0667 45.8542C51.9836 45.9402 51.9213 46.3273 51.9213 46.7359C51.9213 47.3166 52.0044 47.4456 52.3577 47.4456C52.7109 47.4456 52.7733 47.3381 52.7109 46.6499C52.6486 45.8972 52.3577 45.5531 52.0667 45.8542Z" fill="white"/>
<path d="M46.5806 48.4135C46.4559 48.8006 47.0586 49.5963 47.495 49.5963C47.9521 49.5963 48.0561 48.9726 47.6612 48.521C47.204 48.0048 46.7676 47.9618 46.5806 48.4135Z" fill="white"/>
<path d="M57.0125 48.521C56.6177 48.9726 56.7216 49.5963 57.1788 49.5963C57.6152 49.5963 58.2178 48.8006 58.0931 48.4135C57.9061 47.9618 57.4697 48.0048 57.0125 48.521Z" fill="white"/>
<path d="M52.0668 48.65C51.9837 48.7361 51.9213 49.9189 51.9213 51.2953V53.7685L50.9654 54.7793C50.3212 55.446 50.0302 55.9191 50.1134 56.1342C50.3004 56.6504 50.4666 56.5643 51.6719 55.446L52.7733 54.4137L52.711 51.5319C52.6486 48.8651 52.5032 48.1984 52.0668 48.65Z" fill="white"/>
<path d="M44.3363 53.8976C44.1077 54.2847 44.4402 54.5428 45.1883 54.5428C45.7494 54.5428 45.8948 54.4567 45.8948 54.1126C45.8948 53.7685 45.7494 53.6825 45.1883 53.6825C44.7934 53.6825 44.3986 53.7685 44.3363 53.8976Z" fill="white"/>
<path d="M58.675 53.8976C58.4464 54.2847 58.7789 54.5428 59.527 54.5428C60.0881 54.5428 60.2336 54.4567 60.2336 54.1126C60.2336 53.7685 60.0881 53.6825 59.527 53.6825C59.1322 53.6825 58.7374 53.7685 58.675 53.8976Z" fill="white"/>
<path d="M46.8299 59.0591C46.4351 59.5107 46.539 60.1344 46.9962 60.1344C47.4326 60.1344 48.0352 59.3387 47.9105 58.9515C47.7235 58.4999 47.2871 58.5429 46.8299 59.0591Z" fill="white"/>
<path d="M56.7632 58.9515C56.6385 59.3387 57.2412 60.1344 57.6776 60.1344C58.1348 60.1344 58.2387 59.5107 57.8438 59.0591C57.3867 58.5429 56.9503 58.4999 56.7632 58.9515Z" fill="white"/>
<path d="M52.046 60.715C51.9836 60.8011 51.9213 61.1667 51.9213 61.5753C51.9213 62.1345 52.0044 62.285 52.3369 62.285C52.6694 62.285 52.7525 62.1345 52.7525 61.5538C52.7525 60.8871 52.3577 60.414 52.046 60.715Z" fill="white"/>
<path d="M103.936 35.9629C103.936 36.3796 103.861 36.7507 103.711 37.0762C103.561 37.3952 103.353 37.6751 103.086 37.916C102.819 38.1504 102.5 38.3522 102.129 38.5215C101.764 38.6842 101.367 38.8177 100.938 38.9219C100.508 39.0195 100.049 39.0879 99.5605 39.127C99.0788 39.1725 98.5905 39.1953 98.0957 39.1953C97.3991 39.1953 96.7057 39.1595 96.0156 39.0879C95.3255 39.0163 94.681 38.9284 94.082 38.8242C93.4831 38.7135 92.9525 38.5964 92.4902 38.4727C92.0345 38.349 91.6895 38.2318 91.4551 38.1211C91.3639 38.0755 91.2956 38.0202 91.25 37.9551C91.2109 37.8835 91.1914 37.8118 91.1914 37.7402C91.1914 37.6621 91.2109 37.597 91.25 37.5449C91.2956 37.4863 91.3607 37.457 91.4453 37.457C91.4844 37.457 91.5299 37.4668 91.582 37.4863C91.8359 37.5905 92.2005 37.7044 92.6758 37.8281C93.151 37.9518 93.6882 38.069 94.2871 38.1797C94.8926 38.2839 95.5339 38.3717 96.2109 38.4434C96.8945 38.515 97.5716 38.5508 98.2422 38.5508C98.8932 38.5508 99.5117 38.5085 100.098 38.4238C100.684 38.3392 101.198 38.196 101.641 37.9941C102.09 37.7923 102.445 37.5254 102.705 37.1934C102.972 36.8613 103.105 36.4512 103.105 35.9629C103.105 35.5527 102.992 35.2174 102.764 34.957C102.542 34.6901 102.24 34.4785 101.855 34.3223C101.471 34.1595 101.022 34.0391 100.508 33.9609C99.9935 33.8763 99.4466 33.8145 98.8672 33.7754C98.2943 33.7298 97.7018 33.6973 97.0898 33.6777C96.4779 33.6517 95.8822 33.6126 95.3027 33.5605C94.7298 33.5085 94.1862 33.4336 93.6719 33.3359C93.1576 33.2383 92.7083 33.0951 92.3242 32.9062C91.9401 32.7174 91.6341 32.4733 91.4062 32.1738C91.1849 31.8743 91.0742 31.4967 91.0742 31.041C91.0742 30.6243 91.1523 30.2565 91.3086 29.9375C91.4648 29.6185 91.6797 29.3451 91.9531 29.1172C92.2266 28.8828 92.5488 28.6908 92.9199 28.541C93.2975 28.3848 93.7044 28.2611 94.1406 28.1699C94.5833 28.0788 95.0456 28.0137 95.5273 27.9746C96.0156 27.9355 96.5039 27.916 96.9922 27.916C97.5977 27.916 98.1934 27.9453 98.7793 28.0039C99.3652 28.056 99.9154 28.1309 100.43 28.2285C100.944 28.3197 101.406 28.4238 101.816 28.541C102.227 28.6517 102.555 28.7656 102.803 28.8828C102.855 28.9089 102.894 28.9479 102.92 29C102.946 29.0456 102.959 29.0944 102.959 29.1465C102.959 29.2376 102.926 29.3223 102.861 29.4004C102.803 29.4785 102.718 29.5176 102.607 29.5176C102.542 29.5176 102.487 29.5046 102.441 29.4785C102.096 29.3353 101.712 29.2083 101.289 29.0977C100.872 28.9805 100.43 28.8828 99.9609 28.8047C99.4922 28.7266 99.0072 28.668 98.5059 28.6289C98.0111 28.5833 97.5195 28.5605 97.0312 28.5605C96.3542 28.5605 95.7064 28.5996 95.0879 28.6777C94.4694 28.7559 93.9225 28.8893 93.4473 29.0781C92.9785 29.2604 92.6042 29.5078 92.3242 29.8203C92.0443 30.1263 91.9043 30.5137 91.9043 30.9824C91.9043 31.3405 92.015 31.6335 92.2363 31.8613C92.4642 32.0827 92.7702 32.2617 93.1543 32.3984C93.5384 32.5352 93.9876 32.6393 94.502 32.7109C95.0163 32.776 95.5599 32.8281 96.1328 32.8672C96.7122 32.9062 97.3079 32.9421 97.9199 32.9746C98.5319 33.0007 99.1243 33.0495 99.6973 33.1211C100.277 33.1862 100.824 33.2806 101.338 33.4043C101.852 33.5215 102.301 33.6875 102.686 33.9023C103.07 34.1172 103.372 34.3939 103.594 34.7324C103.822 35.0645 103.936 35.4746 103.936 35.9629ZM111.113 28.6191C111.217 28.4303 111.299 28.3001 111.357 28.2285C111.416 28.1569 111.504 28.1211 111.621 28.1211C111.712 28.1211 111.79 28.1569 111.855 28.2285C111.927 28.2936 112.018 28.4238 112.129 28.6191L117.52 38.3457C117.591 38.4759 117.627 38.6029 117.627 38.7266C117.627 38.8438 117.594 38.9349 117.529 39C117.464 39.0651 117.386 39.0977 117.295 39.0977C117.204 39.0977 117.113 39.0651 117.021 39C116.937 38.9414 116.849 38.8307 116.758 38.668L115.098 35.6602H108.145L106.465 38.707C106.393 38.8438 106.309 38.9414 106.211 39C106.12 39.0651 106.029 39.0977 105.938 39.0977C105.827 39.0977 105.745 39.0586 105.693 38.9805C105.641 38.9023 105.615 38.7982 105.615 38.668C105.615 38.6159 105.625 38.5638 105.645 38.5117C105.671 38.4596 105.7 38.401 105.732 38.3359L111.113 28.6191ZM114.814 35.084L111.621 29.2539L108.428 35.084H114.814ZM123.301 38.1211L128.877 28.6094C128.949 28.4857 129.023 28.3783 129.102 28.2871C129.18 28.196 129.264 28.1439 129.355 28.1309C129.479 28.1309 129.567 28.1699 129.619 28.248C129.671 28.3262 129.697 28.401 129.697 28.4727C129.697 28.5443 129.674 28.6224 129.629 28.707C129.59 28.7852 129.544 28.8665 129.492 28.9512L123.799 38.6582C123.727 38.7754 123.646 38.8633 123.555 38.9219C123.47 38.974 123.382 39 123.291 39C123.096 39 122.93 38.8861 122.793 38.6582L117.08 28.9512C117.028 28.86 116.982 28.7754 116.943 28.6973C116.911 28.6126 116.895 28.5312 116.895 28.4531C116.895 28.401 116.921 28.3359 116.973 28.2578C117.025 28.1732 117.106 28.1309 117.217 28.1309C117.327 28.1439 117.419 28.196 117.49 28.2871C117.568 28.3783 117.643 28.4857 117.715 28.6094L123.301 38.1211ZM141.865 38.6582C141.865 38.7559 141.849 38.8275 141.816 38.873C141.784 38.9186 141.738 38.9512 141.68 38.9707C141.628 38.9902 141.562 39 141.484 39C141.406 39 141.318 39 141.221 39H132.1C132.035 39 131.986 38.9967 131.953 38.9902C131.921 38.9837 131.895 38.9674 131.875 38.9414C131.862 38.9154 131.852 38.8828 131.846 38.8438C131.846 38.7982 131.846 38.7363 131.846 38.6582V28.5801C131.846 28.4824 131.846 28.4043 131.846 28.3457C131.852 28.2871 131.865 28.2415 131.885 28.209C131.904 28.1764 131.937 28.1536 131.982 28.1406C132.035 28.1276 132.109 28.1211 132.207 28.1211H141.123C141.221 28.1211 141.312 28.1211 141.396 28.1211C141.481 28.1211 141.556 28.1309 141.621 28.1504C141.693 28.1699 141.748 28.2025 141.787 28.248C141.826 28.2936 141.846 28.3652 141.846 28.4629C141.846 28.541 141.826 28.6029 141.787 28.6484C141.748 28.6875 141.693 28.7168 141.621 28.7363C141.556 28.7559 141.481 28.7656 141.396 28.7656C141.312 28.7656 141.221 28.7656 141.123 28.7656H132.676V33.043H141.074C141.217 33.043 141.338 33.0625 141.436 33.1016C141.533 33.1406 141.582 33.2253 141.582 33.3555C141.582 33.4987 141.54 33.5931 141.455 33.6387C141.377 33.6842 141.273 33.707 141.143 33.707H132.676V38.3555H141.143C141.24 38.3555 141.331 38.3555 141.416 38.3555C141.501 38.3555 141.576 38.3652 141.641 38.3848C141.712 38.4043 141.768 38.4368 141.807 38.4824C141.846 38.5215 141.865 38.5801 141.865 38.6582ZM160.42 28.4824C160.42 28.6126 160.374 28.694 160.283 28.7266C160.192 28.7526 160.075 28.7656 159.932 28.7656H154.473V38.2773C154.473 38.375 154.469 38.4661 154.463 38.5508C154.456 38.6354 154.437 38.7135 154.404 38.7852C154.378 38.8503 154.339 38.9023 154.287 38.9414C154.235 38.9805 154.16 39 154.062 39C153.893 39 153.779 38.9284 153.721 38.7852C153.669 38.6354 153.643 38.4661 153.643 38.2773V28.7656H148.174C148.031 28.7656 147.907 28.7526 147.803 28.7266C147.705 28.694 147.656 28.6126 147.656 28.4824C147.656 28.3848 147.679 28.3132 147.725 28.2676C147.77 28.2155 147.826 28.1797 147.891 28.1602C147.962 28.1406 148.04 28.1309 148.125 28.1309C148.216 28.1243 148.301 28.1211 148.379 28.1211H159.717C159.814 28.1211 159.906 28.1243 159.99 28.1309C160.075 28.1309 160.146 28.1406 160.205 28.1602C160.27 28.1797 160.322 28.2155 160.361 28.2676C160.4 28.3132 160.42 28.3848 160.42 28.4824ZM162.158 28.8047C162.158 28.7201 162.161 28.6387 162.168 28.5605C162.181 28.4759 162.204 28.401 162.236 28.3359C162.275 28.2708 162.324 28.2188 162.383 28.1797C162.448 28.1406 162.529 28.1211 162.627 28.1211C162.699 28.1211 162.757 28.1439 162.803 28.1895C162.848 28.2285 162.884 28.2806 162.91 28.3457C162.943 28.4108 162.962 28.4857 162.969 28.5703C162.982 28.6484 162.988 28.7266 162.988 28.8047V33.082H171.631V28.8047C171.631 28.7201 171.634 28.6387 171.641 28.5605C171.647 28.4759 171.663 28.401 171.689 28.3359C171.722 28.2708 171.764 28.2188 171.816 28.1797C171.868 28.1406 171.943 28.1211 172.041 28.1211C172.139 28.1211 172.214 28.1406 172.266 28.1797C172.324 28.2188 172.367 28.2708 172.393 28.3359C172.425 28.401 172.445 28.4759 172.451 28.5605C172.458 28.6387 172.461 28.7201 172.461 28.8047V38.3164C172.461 38.401 172.458 38.4857 172.451 38.5703C172.445 38.6484 172.425 38.7201 172.393 38.7852C172.367 38.8503 172.327 38.9023 172.275 38.9414C172.223 38.9805 172.148 39 172.051 39C171.953 39 171.875 38.9805 171.816 38.9414C171.764 38.9023 171.722 38.8503 171.689 38.7852C171.663 38.7201 171.647 38.6484 171.641 38.5703C171.634 38.4857 171.631 38.401 171.631 38.3164V33.6875H162.988V38.3164C162.988 38.3945 162.982 38.4759 162.969 38.5605C162.956 38.6387 162.933 38.7103 162.9 38.7754C162.874 38.8405 162.835 38.8958 162.783 38.9414C162.738 38.9805 162.679 39 162.607 39C162.51 39 162.428 38.9805 162.363 38.9414C162.305 38.9023 162.259 38.8503 162.227 38.7852C162.201 38.7201 162.181 38.6484 162.168 38.5703C162.161 38.4857 162.158 38.401 162.158 38.3164V28.8047ZM185.615 38.6582C185.615 38.7559 185.599 38.8275 185.566 38.873C185.534 38.9186 185.488 38.9512 185.43 38.9707C185.378 38.9902 185.312 39 185.234 39C185.156 39 185.068 39 184.971 39H175.85C175.785 39 175.736 38.9967 175.703 38.9902C175.671 38.9837 175.645 38.9674 175.625 38.9414C175.612 38.9154 175.602 38.8828 175.596 38.8438C175.596 38.7982 175.596 38.7363 175.596 38.6582V28.5801C175.596 28.4824 175.596 28.4043 175.596 28.3457C175.602 28.2871 175.615 28.2415 175.635 28.209C175.654 28.1764 175.687 28.1536 175.732 28.1406C175.785 28.1276 175.859 28.1211 175.957 28.1211H184.873C184.971 28.1211 185.062 28.1211 185.146 28.1211C185.231 28.1211 185.306 28.1309 185.371 28.1504C185.443 28.1699 185.498 28.2025 185.537 28.248C185.576 28.2936 185.596 28.3652 185.596 28.4629C185.596 28.541 185.576 28.6029 185.537 28.6484C185.498 28.6875 185.443 28.7168 185.371 28.7363C185.306 28.7559 185.231 28.7656 185.146 28.7656C185.062 28.7656 184.971 28.7656 184.873 28.7656H176.426V33.043H184.824C184.967 33.043 185.088 33.0625 185.186 33.1016C185.283 33.1406 185.332 33.2253 185.332 33.3555C185.332 33.4987 185.29 33.5931 185.205 33.6387C185.127 33.6842 185.023 33.707 184.893 33.707H176.426V38.3555H184.893C184.99 38.3555 185.081 38.3555 185.166 38.3555C185.251 38.3555 185.326 38.3652 185.391 38.3848C185.462 38.4043 185.518 38.4368 185.557 38.4824C185.596 38.5215 185.615 38.5801 185.615 38.6582ZM206.338 33.541C206.338 34.5827 206.201 35.4518 205.928 36.1484C205.654 36.8451 205.247 37.4049 204.707 37.8281C204.167 38.2513 203.493 38.554 202.686 38.7363C201.885 38.9121 200.954 39 199.893 39H193.174C193.076 39 193.001 39 192.949 39C192.904 38.9935 192.868 38.9805 192.842 38.9609C192.816 38.9349 192.799 38.8991 192.793 38.8535C192.793 38.8079 192.793 38.7428 192.793 38.6582V28.4824C192.793 28.3848 192.793 28.3132 192.793 28.2676C192.799 28.2155 192.816 28.1797 192.842 28.1602C192.868 28.1406 192.907 28.1309 192.959 28.1309C193.018 28.1243 193.096 28.1211 193.193 28.1211H199.893C200.954 28.1211 201.885 28.2122 202.686 28.3945C203.493 28.5768 204.167 28.8828 204.707 29.3125C205.247 29.7357 205.654 30.2923 205.928 30.9824C206.201 31.6725 206.338 32.5254 206.338 33.541ZM205.508 33.541C205.508 32.7012 205.413 31.9818 205.225 31.3828C205.036 30.7773 204.723 30.2826 204.287 29.8984C203.851 29.5078 203.275 29.2214 202.559 29.0391C201.842 28.8568 200.954 28.7656 199.893 28.7656H193.623V38.3555H199.893C200.954 38.3555 201.842 38.2643 202.559 38.082C203.275 37.8997 203.851 37.6165 204.287 37.2324C204.723 36.8418 205.036 36.3438 205.225 35.7383C205.413 35.1263 205.508 34.3939 205.508 33.541ZM213.359 28.6191C213.464 28.4303 213.545 28.3001 213.604 28.2285C213.662 28.1569 213.75 28.1211 213.867 28.1211C213.958 28.1211 214.036 28.1569 214.102 28.2285C214.173 28.2936 214.264 28.4238 214.375 28.6191L219.766 38.3457C219.837 38.4759 219.873 38.6029 219.873 38.7266C219.873 38.8438 219.84 38.9349 219.775 39C219.71 39.0651 219.632 39.0977 219.541 39.0977C219.45 39.0977 219.359 39.0651 219.268 39C219.183 38.9414 219.095 38.8307 219.004 38.668L217.344 35.6602H210.391L208.711 38.707C208.639 38.8438 208.555 38.9414 208.457 39C208.366 39.0651 208.275 39.0977 208.184 39.0977C208.073 39.0977 207.992 39.0586 207.939 38.9805C207.887 38.9023 207.861 38.7982 207.861 38.668C207.861 38.6159 207.871 38.5638 207.891 38.5117C207.917 38.4596 207.946 38.401 207.979 38.3359L213.359 28.6191ZM217.061 35.084L213.867 29.2539L210.674 35.084H217.061ZM230.889 28.4824C230.889 28.6126 230.843 28.694 230.752 28.7266C230.661 28.7526 230.544 28.7656 230.4 28.7656H224.941V38.2773C224.941 38.375 224.938 38.4661 224.932 38.5508C224.925 38.6354 224.906 38.7135 224.873 38.7852C224.847 38.8503 224.808 38.9023 224.756 38.9414C224.704 38.9805 224.629 39 224.531 39C224.362 39 224.248 38.9284 224.189 38.7852C224.137 38.6354 224.111 38.4661 224.111 38.2773V28.7656H218.643C218.499 28.7656 218.376 28.7526 218.271 28.7266C218.174 28.694 218.125 28.6126 218.125 28.4824C218.125 28.3848 218.148 28.3132 218.193 28.2676C218.239 28.2155 218.294 28.1797 218.359 28.1602C218.431 28.1406 218.509 28.1309 218.594 28.1309C218.685 28.1243 218.77 28.1211 218.848 28.1211H230.186C230.283 28.1211 230.374 28.1243 230.459 28.1309C230.544 28.1309 230.615 28.1406 230.674 28.1602C230.739 28.1797 230.791 28.2155 230.83 28.2676C230.869 28.3132 230.889 28.3848 230.889 28.4824ZM242.666 38.6582C242.666 38.7559 242.65 38.8275 242.617 38.873C242.585 38.9186 242.539 38.9512 242.48 38.9707C242.428 38.9902 242.363 39 242.285 39C242.207 39 242.119 39 242.021 39H232.9C232.835 39 232.786 38.9967 232.754 38.9902C232.721 38.9837 232.695 38.9674 232.676 38.9414C232.663 38.9154 232.653 38.8828 232.646 38.8438C232.646 38.7982 232.646 38.7363 232.646 38.6582V28.5801C232.646 28.4824 232.646 28.4043 232.646 28.3457C232.653 28.2871 232.666 28.2415 232.686 28.209C232.705 28.1764 232.738 28.1536 232.783 28.1406C232.835 28.1276 232.91 28.1211 233.008 28.1211H241.924C242.021 28.1211 242.113 28.1211 242.197 28.1211C242.282 28.1211 242.357 28.1309 242.422 28.1504C242.493 28.1699 242.549 28.2025 242.588 28.248C242.627 28.2936 242.646 28.3652 242.646 28.4629C242.646 28.541 242.627 28.6029 242.588 28.6484C242.549 28.6875 242.493 28.7168 242.422 28.7363C242.357 28.7559 242.282 28.7656 242.197 28.7656C242.113 28.7656 242.021 28.7656 241.924 28.7656H233.477V33.043H241.875C242.018 33.043 242.139 33.0625 242.236 33.1016C242.334 33.1406 242.383 33.2253 242.383 33.3555C242.383 33.4987 242.34 33.5931 242.256 33.6387C242.178 33.6842 242.074 33.707 241.943 33.707H233.477V38.3555H241.943C242.041 38.3555 242.132 38.3555 242.217 38.3555C242.301 38.3555 242.376 38.3652 242.441 38.3848C242.513 38.4043 242.568 38.4368 242.607 38.4824C242.646 38.5215 242.666 38.5801 242.666 38.6582Z" fill="white"/>
</svg>
