<svg width="255" height="65" viewBox="0 0 255 65" fill="none" xmlns="http://www.w3.org/2000/svg">
<path d="M13.2896 0.0673141C11.9596 0.32539 11.0037 1.95987 11.2738 3.46531L11.4193 4.21803H6.32798C1.34057 4.21803 1.23666 4.21803 0.737923 4.69116C0.2184 5.18581 -0.25956 6.5407 0.176839 6.26112C0.322305 6.15359 0.384647 7.44397 0.384647 10.4548C0.363867 13.5087 0.426209 14.8636 0.613237 15.1002C0.779484 15.3153 0.800265 15.4658 0.613237 15.7024C0.44699 15.9174 0.384647 21.251 0.426209 35.7032C0.488552 52.0049 0.44699 55.4029 0.2184 55.4029C0.0521532 55.4029 -0.0309704 55.532 0.0105914 55.661C0.0937149 55.8761 4.56161 55.9621 21.311 56.0051L42.5075 56.0481L42.7569 56.9729C43.5466 59.6827 45.6454 62.1989 48.1184 63.4248C49.4899 64.0915 49.6146 64.113 52.3369 64.113C55.0592 64.113 55.1839 64.0915 56.5554 63.4248C58.5296 62.457 60.2544 60.6935 61.2311 58.6504L62 57.0374V54.1341C62 51.2952 61.9792 51.1662 61.335 49.7468C60.1713 47.2091 57.7191 45.0154 55.1423 44.2197L54.3111 43.9616L54.3734 25.3372C54.3942 15.0787 54.3734 6.36865 54.3111 5.96003C54.2279 5.57292 53.9578 5.01376 53.6876 4.73417C53.1889 4.21802 53.1889 4.21803 48.1184 4.21803H43.027L42.9439 2.82012C42.8816 1.7448 42.7569 1.31468 42.362 0.884552C41.3438 -0.233772 39.4319 -0.233772 38.4137 0.884552C38.0188 1.31468 37.8942 1.7233 37.8318 2.82012L37.7487 4.21803H27.1712H16.5937V3.25024C16.5937 0.992081 15.243 -0.319801 13.2896 0.0673141ZM41.8633 1.98137C42.2166 2.84163 42.2581 6.28262 41.9464 7.14288C41.6555 7.9171 41.1568 8.28271 40.3879 8.28271C39.619 8.28271 39.1202 7.9171 38.8293 7.14288C38.5384 6.32564 38.5591 2.64806 38.8709 1.93836C39.4735 0.604969 41.323 0.626476 41.8633 1.98137ZM15.0767 1.46522C15.5339 1.89535 15.5547 2.0889 15.5547 4.58363C15.5547 7.12137 15.5339 7.27191 15.0352 7.76656C14.7235 8.11066 14.2871 8.30421 13.8922 8.30421C13.4974 8.30421 13.061 8.11066 12.7493 7.76656C12.2505 7.27191 12.2298 7.12137 12.2298 4.69116C12.2298 2.4115 12.2713 2.0674 12.6662 1.55125C13.2272 0.820034 14.3702 0.77702 15.0767 1.46522ZM11.2738 5.61593C10.9206 7.05685 11.8765 8.75584 13.2896 9.18597C13.9754 9.40103 14.2247 9.37952 14.8689 9.07844C15.9911 8.54078 16.4483 7.78806 16.5522 6.32564L16.6353 5.07827H27.2128H37.7903V6.23961C37.7903 7.68053 38.3929 8.69133 39.5359 9.14296C40.2216 9.42254 40.4502 9.42254 41.1775 9.14296C42.362 8.71283 42.9855 7.72355 42.9855 6.23961V5.07827H47.8066C51.9836 5.07827 52.6694 5.12129 53.0019 5.44388C53.3344 5.76648 53.3759 6.1966 53.3759 10.3903V14.9712H27.1504H0.90417L0.966512 10.3043C1.00807 6.21811 1.07042 5.57292 1.36135 5.33635C1.61072 5.14279 3.00304 5.07827 6.55657 5.07827H11.3985L11.2738 5.61593ZM53.3759 29.8105V43.7896H52.1914C49.573 43.7896 47.4118 44.7788 45.3545 46.8865C43.318 49.0156 42.362 51.2522 42.362 53.962V55.1879L21.6851 55.1449L1.00807 55.0803V35.5527C1.00807 24.821 1.00807 16.0035 1.00807 15.9389C1.00807 15.8744 12.7908 15.8314 27.192 15.8314H53.3759V29.8105ZM56.1398 45.6606C57.9893 46.5639 59.631 48.2629 60.5038 50.1769C61.1272 51.5533 61.1688 51.7684 61.1688 54.1126C61.1688 56.4567 61.1272 56.6718 60.5038 58.0482C59.631 59.9623 57.9893 61.6613 56.1398 62.5645C54.8098 63.2097 54.602 63.2527 52.3369 63.2527C50.0718 63.2527 49.864 63.2097 48.534 62.5645C41.0944 58.9085 41.8633 47.8542 49.7393 45.1444C50.2588 44.9724 51.3394 44.8864 52.6486 44.9294C54.4773 44.9724 54.8929 45.0584 56.1398 45.6606Z" fill="#00A1D5"/>
<path d="M18.1939 20.7349C17.9029 21.079 17.8406 21.6596 17.8406 24.4769C17.8406 27.4233 17.8821 27.8534 18.2146 28.1545C18.7757 28.6707 24.9061 28.6922 25.4048 28.176C25.9036 27.6814 25.9036 21.1865 25.4048 20.6918C25.1347 20.4123 24.5112 20.3477 21.8097 20.3477C18.9004 20.3477 18.4848 20.3908 18.1939 20.7349ZM24.8022 24.4124V27.4663L21.8305 27.5093L18.8796 27.5523V24.4339V21.3155L21.8513 21.337L24.8022 21.3585V24.4124Z" fill="#00A1D5"/>
<path d="M28.8545 20.7779C28.4805 21.165 28.4389 21.4876 28.4389 24.3909C28.4389 28.7782 28.2103 28.5201 32.3665 28.5201C34.6524 28.5201 35.733 28.4341 35.9824 28.2405C36.2733 28.0255 36.3356 27.4878 36.3564 24.4554C36.3772 21.294 36.3356 20.8854 36.0031 20.6273C35.733 20.4338 34.7355 20.3477 32.4496 20.3477C29.5403 20.3477 29.2286 20.3908 28.8545 20.7779ZM35.4005 24.4339V27.4663H32.4912H29.5818L29.5195 24.6275C29.4987 23.0575 29.4987 21.6596 29.5403 21.5521C29.6026 21.4015 30.6624 21.337 32.5119 21.337L35.4005 21.38V24.4339Z" fill="#00A1D5"/>
<path d="M39.5774 20.6918C39.3072 20.9714 39.2449 21.6166 39.2449 24.4339C39.2449 27.2512 39.3072 27.8964 39.5774 28.176C39.8475 28.4556 40.4709 28.5201 43.1932 28.5201C47.3702 28.5201 47.1416 28.7567 47.1416 24.4339C47.1416 20.1112 47.3702 20.3477 43.1932 20.3477C40.4709 20.3477 39.8475 20.4122 39.5774 20.6918ZM46.1026 24.4339V27.5523L43.1517 27.5093L40.18 27.4663L40.1177 24.6275C40.0969 23.0575 40.0969 21.6596 40.1385 21.5521C40.2008 21.4015 41.3022 21.3155 43.1725 21.3155H46.1026V24.4339Z" fill="#00A1D5"/>
<path d="M7.69949 31.66C7.26309 31.9826 7.24231 32.1116 7.24231 35.4881C7.24231 38.2624 7.30465 39.0581 7.53324 39.2517C7.72027 39.4238 8.96712 39.5098 11.2115 39.5313C14.2455 39.5528 14.6195 39.5098 14.8689 39.1442C15.0559 38.8646 15.139 37.8753 15.139 35.4666C15.139 31.1008 15.3469 31.3159 11.2322 31.3159C8.80088 31.3159 8.07355 31.3804 7.69949 31.66ZM14.1 35.5096V38.628H11.0868H8.07355V35.5096V32.3912H11.0868H14.1V35.5096Z" fill="#00A1D5"/>
<path d="M18.6718 31.4665C17.9445 31.7461 17.8406 32.2192 17.8406 35.5096C17.8406 37.8753 17.9237 38.8646 18.1107 39.1442C18.3601 39.5098 18.7134 39.5313 21.7889 39.5098C23.8463 39.4883 25.3009 39.3808 25.4672 39.2302C25.675 39.0582 25.7373 38.0904 25.7373 35.4881C25.7373 31.0579 25.9659 31.3159 21.8929 31.3374C20.2927 31.3374 18.8381 31.402 18.6718 31.4665ZM24.9061 35.5096V38.6281H21.8929H18.8796V35.5096V32.3912H21.8929H24.9061V35.5096Z" fill="#00A1D5"/>
<path d="M28.9584 31.8536C28.4597 32.3482 28.4389 32.4773 28.4389 35.4666C28.4389 39.7034 28.2103 39.4668 32.4704 39.5098C35.1096 39.5313 35.8161 39.4668 36.0655 39.2087C36.3149 38.9506 36.3772 38.2194 36.3564 35.4881C36.3149 31.0793 36.5435 31.3159 32.4496 31.3159C29.5611 31.3159 29.4364 31.3374 28.9584 31.8536ZM35.5044 35.5096V38.628H32.4912H29.478V35.5096V32.3912H32.4912H35.5044V35.5096Z" fill="#00A1D5"/>
<path d="M39.7228 31.6385C39.2657 31.9826 39.2449 32.1116 39.2449 35.4881C39.2449 38.2409 39.3072 39.0582 39.5358 39.2517C39.7228 39.4238 40.9697 39.5098 43.214 39.5098C46.2273 39.5313 46.6221 39.4883 46.8715 39.1442C47.2663 38.585 47.2455 32.4127 46.8507 31.832C46.5805 31.4664 46.248 31.4234 43.3595 31.3589C40.6995 31.3159 40.0969 31.3589 39.7228 31.6385ZM46.1026 35.5096V38.628H43.0893H40.0761V35.5096V32.3912H43.0893H46.1026V35.5096Z" fill="#00A1D5"/>
<path d="M7.5748 42.8433C7.30465 43.1228 7.24231 43.768 7.24231 46.5639C7.24231 49.5747 7.28387 50.0049 7.61637 50.3059C7.94886 50.607 8.50994 50.6715 11.1491 50.6715C15.3469 50.6715 15.139 50.8866 15.139 46.5208C15.139 43.596 15.0975 43.1659 14.765 42.8648C14.2039 42.3486 8.07355 42.3271 7.5748 42.8433ZM14.1 46.5208V49.7038L11.1491 49.6608L8.17745 49.6177L8.11511 46.7789C8.09433 45.209 8.11511 43.7895 8.15667 43.639C8.23979 43.4239 8.9879 43.3594 11.1907 43.3594H14.1V46.5208Z" fill="#00A1D5"/>
<path d="M18.1939 42.8863C17.9029 43.2304 17.8406 43.8111 17.8406 46.4993C17.8406 50.9296 17.5912 50.6716 21.789 50.6716C24.5112 50.6716 25.1347 50.607 25.4048 50.3275C25.9036 49.8328 25.9036 43.3379 25.4048 42.8433C25.1347 42.5637 24.5112 42.4992 21.8097 42.4992C18.9004 42.4992 18.4848 42.5422 18.1939 42.8863ZM24.8022 46.5208C24.8022 48.2198 24.7398 49.5962 24.6567 49.5962C24.5528 49.5962 23.2228 49.5962 21.685 49.5962H18.8796V46.4778V43.3379L21.8513 43.4024L24.8022 43.467V46.5208Z" fill="#00A1D5"/>
<path d="M28.7506 43.0153C28.4597 43.467 28.4181 44.1122 28.4805 46.8004C28.5428 49.7253 28.5844 50.0909 28.9376 50.3705C29.4987 50.7791 35.4628 50.8006 36.0031 50.392C36.3149 50.1554 36.3564 49.7038 36.3564 46.6069C36.3564 44.2412 36.2733 43.0153 36.107 42.8003C35.92 42.5637 35.1511 42.4992 32.4704 42.4992C29.1039 42.4992 29.0623 42.4992 28.7506 43.0153ZM35.5044 46.4778V49.5963H32.4912H29.4779V46.4778V43.3594H32.4912H35.5044V46.4778Z" fill="#00A1D5"/>
<path d="M52.0667 45.8541C51.9836 45.9402 51.9213 46.3273 51.9213 46.7359C51.9213 47.3166 52.0044 47.4456 52.3577 47.4456C52.7109 47.4456 52.7733 47.3381 52.7109 46.6499C52.6486 45.8971 52.3577 45.553 52.0667 45.8541Z" fill="#00A1D5"/>
<path d="M46.5806 48.4134C46.4559 48.8005 47.0586 49.5963 47.495 49.5963C47.9521 49.5963 48.0561 48.9726 47.6612 48.5209C47.204 48.0048 46.7676 47.9618 46.5806 48.4134Z" fill="#00A1D5"/>
<path d="M57.0125 48.5209C56.6177 48.9726 56.7216 49.5963 57.1788 49.5963C57.6152 49.5963 58.2178 48.8005 58.0931 48.4134C57.9061 47.9618 57.4697 48.0048 57.0125 48.5209Z" fill="#00A1D5"/>
<path d="M52.0668 48.65C51.9837 48.736 51.9213 49.9188 51.9213 51.2952V53.7685L50.9654 54.7792C50.3212 55.4459 50.0302 55.9191 50.1134 56.1341C50.3004 56.6503 50.4666 56.5643 51.6719 55.4459L52.7733 54.4136L52.711 51.5318C52.6486 48.865 52.5032 48.1983 52.0668 48.65Z" fill="#00A1D5"/>
<path d="M44.3363 53.8975C44.1077 54.2846 44.4402 54.5427 45.1883 54.5427C45.7494 54.5427 45.8948 54.4567 45.8948 54.1126C45.8948 53.7685 45.7494 53.6824 45.1883 53.6824C44.7934 53.6824 44.3986 53.7685 44.3363 53.8975Z" fill="#00A1D5"/>
<path d="M58.675 53.8975C58.4464 54.2846 58.7789 54.5427 59.527 54.5427C60.0881 54.5427 60.2336 54.4567 60.2336 54.1126C60.2336 53.7685 60.0881 53.6824 59.527 53.6824C59.1322 53.6824 58.7374 53.7685 58.675 53.8975Z" fill="#00A1D5"/>
<path d="M46.8299 59.059C46.4351 59.5106 46.539 60.1343 46.9962 60.1343C47.4326 60.1343 48.0352 59.3386 47.9105 58.9515C47.7235 58.4998 47.2871 58.5429 46.8299 59.059Z" fill="#00A1D5"/>
<path d="M56.7632 58.9515C56.6385 59.3386 57.2412 60.1343 57.6776 60.1343C58.1348 60.1343 58.2387 59.5106 57.8438 59.059C57.3867 58.5429 56.9503 58.4998 56.7632 58.9515Z" fill="#00A1D5"/>
<path d="M52.046 60.715C51.9836 60.801 51.9213 61.1666 51.9213 61.5752C51.9213 62.1344 52.0044 62.2849 52.3369 62.2849C52.6694 62.2849 52.7525 62.1344 52.7525 61.5537C52.7525 60.887 52.3577 60.4139 52.046 60.715Z" fill="#00A1D5"/>
<path d="M91.9355 32.9629C91.9355 33.3796 91.8607 33.7507 91.7109 34.0762C91.5612 34.3952 91.3529 34.6751 91.0859 34.916C90.819 35.1504 90.5 35.3522 90.1289 35.5215C89.7643 35.6842 89.3672 35.8177 88.9375 35.9219C88.5078 36.0195 88.0488 36.0879 87.5605 36.127C87.0788 36.1725 86.5905 36.1953 86.0957 36.1953C85.3991 36.1953 84.7057 36.1595 84.0156 36.0879C83.3255 36.0163 82.681 35.9284 82.082 35.8242C81.4831 35.7135 80.9525 35.5964 80.4902 35.4727C80.0345 35.349 79.6895 35.2318 79.4551 35.1211C79.3639 35.0755 79.2956 35.0202 79.25 34.9551C79.2109 34.8835 79.1914 34.8118 79.1914 34.7402C79.1914 34.6621 79.2109 34.597 79.25 34.5449C79.2956 34.4863 79.3607 34.457 79.4453 34.457C79.4844 34.457 79.5299 34.4668 79.582 34.4863C79.8359 34.5905 80.2005 34.7044 80.6758 34.8281C81.151 34.9518 81.6882 35.069 82.2871 35.1797C82.8926 35.2839 83.5339 35.3717 84.2109 35.4434C84.8945 35.515 85.5716 35.5508 86.2422 35.5508C86.8932 35.5508 87.5117 35.5085 88.0977 35.4238C88.6836 35.3392 89.1979 35.196 89.6406 34.9941C90.0898 34.7923 90.4447 34.5254 90.7051 34.1934C90.972 33.8613 91.1055 33.4512 91.1055 32.9629C91.1055 32.5527 90.9915 32.2174 90.7637 31.957C90.5423 31.6901 90.2396 31.4785 89.8555 31.3223C89.4714 31.1595 89.0221 31.0391 88.5078 30.9609C87.9935 30.8763 87.4466 30.8145 86.8672 30.7754C86.2943 30.7298 85.7018 30.6973 85.0898 30.6777C84.4779 30.6517 83.8822 30.6126 83.3027 30.5605C82.7298 30.5085 82.1862 30.4336 81.6719 30.3359C81.1576 30.2383 80.7083 30.0951 80.3242 29.9062C79.9401 29.7174 79.6341 29.4733 79.4062 29.1738C79.1849 28.8743 79.0742 28.4967 79.0742 28.041C79.0742 27.6243 79.1523 27.2565 79.3086 26.9375C79.4648 26.6185 79.6797 26.3451 79.9531 26.1172C80.2266 25.8828 80.5488 25.6908 80.9199 25.541C81.2975 25.3848 81.7044 25.2611 82.1406 25.1699C82.5833 25.0788 83.0456 25.0137 83.5273 24.9746C84.0156 24.9355 84.5039 24.916 84.9922 24.916C85.5977 24.916 86.1934 24.9453 86.7793 25.0039C87.3652 25.056 87.9154 25.1309 88.4297 25.2285C88.944 25.3197 89.4062 25.4238 89.8164 25.541C90.2266 25.6517 90.5553 25.7656 90.8027 25.8828C90.8548 25.9089 90.8939 25.9479 90.9199 26C90.946 26.0456 90.959 26.0944 90.959 26.1465C90.959 26.2376 90.9264 26.3223 90.8613 26.4004C90.8027 26.4785 90.7181 26.5176 90.6074 26.5176C90.5423 26.5176 90.487 26.5046 90.4414 26.4785C90.0964 26.3353 89.7122 26.2083 89.2891 26.0977C88.8724 25.9805 88.4297 25.8828 87.9609 25.8047C87.4922 25.7266 87.0072 25.668 86.5059 25.6289C86.0111 25.5833 85.5195 25.5605 85.0312 25.5605C84.3542 25.5605 83.7064 25.5996 83.0879 25.6777C82.4694 25.7559 81.9225 25.8893 81.4473 26.0781C80.9785 26.2604 80.6042 26.5078 80.3242 26.8203C80.0443 27.1263 79.9043 27.5137 79.9043 27.9824C79.9043 28.3405 80.015 28.6335 80.2363 28.8613C80.4642 29.0827 80.7702 29.2617 81.1543 29.3984C81.5384 29.5352 81.9876 29.6393 82.502 29.7109C83.0163 29.776 83.5599 29.8281 84.1328 29.8672C84.7122 29.9062 85.3079 29.9421 85.9199 29.9746C86.5319 30.0007 87.1243 30.0495 87.6973 30.1211C88.2767 30.1862 88.8236 30.2806 89.3379 30.4043C89.8522 30.5215 90.3014 30.6875 90.6855 30.9023C91.0697 31.1172 91.3724 31.3939 91.5938 31.7324C91.8216 32.0645 91.9355 32.4746 91.9355 32.9629ZM99.1133 25.6191C99.2174 25.4303 99.2988 25.3001 99.3574 25.2285C99.416 25.1569 99.5039 25.1211 99.6211 25.1211C99.7122 25.1211 99.7904 25.1569 99.8555 25.2285C99.9271 25.2936 100.018 25.4238 100.129 25.6191L105.52 35.3457C105.591 35.4759 105.627 35.6029 105.627 35.7266C105.627 35.8438 105.594 35.9349 105.529 36C105.464 36.0651 105.386 36.0977 105.295 36.0977C105.204 36.0977 105.113 36.0651 105.021 36C104.937 35.9414 104.849 35.8307 104.758 35.668L103.098 32.6602H96.1445L94.4648 35.707C94.3932 35.8438 94.3086 35.9414 94.2109 36C94.1198 36.0651 94.0286 36.0977 93.9375 36.0977C93.8268 36.0977 93.7454 36.0586 93.6934 35.9805C93.6413 35.9023 93.6152 35.7982 93.6152 35.668C93.6152 35.6159 93.625 35.5638 93.6445 35.5117C93.6706 35.4596 93.6999 35.401 93.7324 35.3359L99.1133 25.6191ZM102.814 32.084L99.6211 26.2539L96.4277 32.084H102.814ZM111.301 35.1211L116.877 25.6094C116.949 25.4857 117.023 25.3783 117.102 25.2871C117.18 25.196 117.264 25.1439 117.355 25.1309C117.479 25.1309 117.567 25.1699 117.619 25.248C117.671 25.3262 117.697 25.401 117.697 25.4727C117.697 25.5443 117.674 25.6224 117.629 25.707C117.59 25.7852 117.544 25.8665 117.492 25.9512L111.799 35.6582C111.727 35.7754 111.646 35.8633 111.555 35.9219C111.47 35.974 111.382 36 111.291 36C111.096 36 110.93 35.8861 110.793 35.6582L105.08 25.9512C105.028 25.86 104.982 25.7754 104.943 25.6973C104.911 25.6126 104.895 25.5312 104.895 25.4531C104.895 25.401 104.921 25.3359 104.973 25.2578C105.025 25.1732 105.106 25.1309 105.217 25.1309C105.327 25.1439 105.419 25.196 105.49 25.2871C105.568 25.3783 105.643 25.4857 105.715 25.6094L111.301 35.1211ZM129.865 35.6582C129.865 35.7559 129.849 35.8275 129.816 35.873C129.784 35.9186 129.738 35.9512 129.68 35.9707C129.628 35.9902 129.562 36 129.484 36C129.406 36 129.318 36 129.221 36H120.1C120.035 36 119.986 35.9967 119.953 35.9902C119.921 35.9837 119.895 35.9674 119.875 35.9414C119.862 35.9154 119.852 35.8828 119.846 35.8438C119.846 35.7982 119.846 35.7363 119.846 35.6582V25.5801C119.846 25.4824 119.846 25.4043 119.846 25.3457C119.852 25.2871 119.865 25.2415 119.885 25.209C119.904 25.1764 119.937 25.1536 119.982 25.1406C120.035 25.1276 120.109 25.1211 120.207 25.1211H129.123C129.221 25.1211 129.312 25.1211 129.396 25.1211C129.481 25.1211 129.556 25.1309 129.621 25.1504C129.693 25.1699 129.748 25.2025 129.787 25.248C129.826 25.2936 129.846 25.3652 129.846 25.4629C129.846 25.541 129.826 25.6029 129.787 25.6484C129.748 25.6875 129.693 25.7168 129.621 25.7363C129.556 25.7559 129.481 25.7656 129.396 25.7656C129.312 25.7656 129.221 25.7656 129.123 25.7656H120.676V30.043H129.074C129.217 30.043 129.338 30.0625 129.436 30.1016C129.533 30.1406 129.582 30.2253 129.582 30.3555C129.582 30.4987 129.54 30.5931 129.455 30.6387C129.377 30.6842 129.273 30.707 129.143 30.707H120.676V35.3555H129.143C129.24 35.3555 129.331 35.3555 129.416 35.3555C129.501 35.3555 129.576 35.3652 129.641 35.3848C129.712 35.4043 129.768 35.4368 129.807 35.4824C129.846 35.5215 129.865 35.5801 129.865 35.6582ZM148.42 25.4824C148.42 25.6126 148.374 25.694 148.283 25.7266C148.192 25.7526 148.075 25.7656 147.932 25.7656H142.473V35.2773C142.473 35.375 142.469 35.4661 142.463 35.5508C142.456 35.6354 142.437 35.7135 142.404 35.7852C142.378 35.8503 142.339 35.9023 142.287 35.9414C142.235 35.9805 142.16 36 142.062 36C141.893 36 141.779 35.9284 141.721 35.7852C141.669 35.6354 141.643 35.4661 141.643 35.2773V25.7656H136.174C136.031 25.7656 135.907 25.7526 135.803 25.7266C135.705 25.694 135.656 25.6126 135.656 25.4824C135.656 25.3848 135.679 25.3132 135.725 25.2676C135.77 25.2155 135.826 25.1797 135.891 25.1602C135.962 25.1406 136.04 25.1309 136.125 25.1309C136.216 25.1243 136.301 25.1211 136.379 25.1211H147.717C147.814 25.1211 147.906 25.1243 147.99 25.1309C148.075 25.1309 148.146 25.1406 148.205 25.1602C148.27 25.1797 148.322 25.2155 148.361 25.2676C148.4 25.3132 148.42 25.3848 148.42 25.4824ZM150.158 25.8047C150.158 25.7201 150.161 25.6387 150.168 25.5605C150.181 25.4759 150.204 25.401 150.236 25.3359C150.275 25.2708 150.324 25.2188 150.383 25.1797C150.448 25.1406 150.529 25.1211 150.627 25.1211C150.699 25.1211 150.757 25.1439 150.803 25.1895C150.848 25.2285 150.884 25.2806 150.91 25.3457C150.943 25.4108 150.962 25.4857 150.969 25.5703C150.982 25.6484 150.988 25.7266 150.988 25.8047V30.082H159.631V25.8047C159.631 25.7201 159.634 25.6387 159.641 25.5605C159.647 25.4759 159.663 25.401 159.689 25.3359C159.722 25.2708 159.764 25.2188 159.816 25.1797C159.868 25.1406 159.943 25.1211 160.041 25.1211C160.139 25.1211 160.214 25.1406 160.266 25.1797C160.324 25.2188 160.367 25.2708 160.393 25.3359C160.425 25.401 160.445 25.4759 160.451 25.5605C160.458 25.6387 160.461 25.7201 160.461 25.8047V35.3164C160.461 35.401 160.458 35.4857 160.451 35.5703C160.445 35.6484 160.425 35.7201 160.393 35.7852C160.367 35.8503 160.327 35.9023 160.275 35.9414C160.223 35.9805 160.148 36 160.051 36C159.953 36 159.875 35.9805 159.816 35.9414C159.764 35.9023 159.722 35.8503 159.689 35.7852C159.663 35.7201 159.647 35.6484 159.641 35.5703C159.634 35.4857 159.631 35.401 159.631 35.3164V30.6875H150.988V35.3164C150.988 35.3945 150.982 35.4759 150.969 35.5605C150.956 35.6387 150.933 35.7103 150.9 35.7754C150.874 35.8405 150.835 35.8958 150.783 35.9414C150.738 35.9805 150.679 36 150.607 36C150.51 36 150.428 35.9805 150.363 35.9414C150.305 35.9023 150.259 35.8503 150.227 35.7852C150.201 35.7201 150.181 35.6484 150.168 35.5703C150.161 35.4857 150.158 35.401 150.158 35.3164V25.8047ZM173.615 35.6582C173.615 35.7559 173.599 35.8275 173.566 35.873C173.534 35.9186 173.488 35.9512 173.43 35.9707C173.378 35.9902 173.312 36 173.234 36C173.156 36 173.068 36 172.971 36H163.85C163.785 36 163.736 35.9967 163.703 35.9902C163.671 35.9837 163.645 35.9674 163.625 35.9414C163.612 35.9154 163.602 35.8828 163.596 35.8438C163.596 35.7982 163.596 35.7363 163.596 35.6582V25.5801C163.596 25.4824 163.596 25.4043 163.596 25.3457C163.602 25.2871 163.615 25.2415 163.635 25.209C163.654 25.1764 163.687 25.1536 163.732 25.1406C163.785 25.1276 163.859 25.1211 163.957 25.1211H172.873C172.971 25.1211 173.062 25.1211 173.146 25.1211C173.231 25.1211 173.306 25.1309 173.371 25.1504C173.443 25.1699 173.498 25.2025 173.537 25.248C173.576 25.2936 173.596 25.3652 173.596 25.4629C173.596 25.541 173.576 25.6029 173.537 25.6484C173.498 25.6875 173.443 25.7168 173.371 25.7363C173.306 25.7559 173.231 25.7656 173.146 25.7656C173.062 25.7656 172.971 25.7656 172.873 25.7656H164.426V30.043H172.824C172.967 30.043 173.088 30.0625 173.186 30.1016C173.283 30.1406 173.332 30.2253 173.332 30.3555C173.332 30.4987 173.29 30.5931 173.205 30.6387C173.127 30.6842 173.023 30.707 172.893 30.707H164.426V35.3555H172.893C172.99 35.3555 173.081 35.3555 173.166 35.3555C173.251 35.3555 173.326 35.3652 173.391 35.3848C173.462 35.4043 173.518 35.4368 173.557 35.4824C173.596 35.5215 173.615 35.5801 173.615 35.6582ZM194.338 30.541C194.338 31.5827 194.201 32.4518 193.928 33.1484C193.654 33.8451 193.247 34.4049 192.707 34.8281C192.167 35.2513 191.493 35.554 190.686 35.7363C189.885 35.9121 188.954 36 187.893 36H181.174C181.076 36 181.001 36 180.949 36C180.904 35.9935 180.868 35.9805 180.842 35.9609C180.816 35.9349 180.799 35.8991 180.793 35.8535C180.793 35.8079 180.793 35.7428 180.793 35.6582V25.4824C180.793 25.3848 180.793 25.3132 180.793 25.2676C180.799 25.2155 180.816 25.1797 180.842 25.1602C180.868 25.1406 180.907 25.1309 180.959 25.1309C181.018 25.1243 181.096 25.1211 181.193 25.1211H187.893C188.954 25.1211 189.885 25.2122 190.686 25.3945C191.493 25.5768 192.167 25.8828 192.707 26.3125C193.247 26.7357 193.654 27.2923 193.928 27.9824C194.201 28.6725 194.338 29.5254 194.338 30.541ZM193.508 30.541C193.508 29.7012 193.413 28.9818 193.225 28.3828C193.036 27.7773 192.723 27.2826 192.287 26.8984C191.851 26.5078 191.275 26.2214 190.559 26.0391C189.842 25.8568 188.954 25.7656 187.893 25.7656H181.623V35.3555H187.893C188.954 35.3555 189.842 35.2643 190.559 35.082C191.275 34.8997 191.851 34.6165 192.287 34.2324C192.723 33.8418 193.036 33.3438 193.225 32.7383C193.413 32.1263 193.508 31.3939 193.508 30.541ZM201.359 25.6191C201.464 25.4303 201.545 25.3001 201.604 25.2285C201.662 25.1569 201.75 25.1211 201.867 25.1211C201.958 25.1211 202.036 25.1569 202.102 25.2285C202.173 25.2936 202.264 25.4238 202.375 25.6191L207.766 35.3457C207.837 35.4759 207.873 35.6029 207.873 35.7266C207.873 35.8438 207.84 35.9349 207.775 36C207.71 36.0651 207.632 36.0977 207.541 36.0977C207.45 36.0977 207.359 36.0651 207.268 36C207.183 35.9414 207.095 35.8307 207.004 35.668L205.344 32.6602H198.391L196.711 35.707C196.639 35.8438 196.555 35.9414 196.457 36C196.366 36.0651 196.275 36.0977 196.184 36.0977C196.073 36.0977 195.992 36.0586 195.939 35.9805C195.887 35.9023 195.861 35.7982 195.861 35.668C195.861 35.6159 195.871 35.5638 195.891 35.5117C195.917 35.4596 195.946 35.401 195.979 35.3359L201.359 25.6191ZM205.061 32.084L201.867 26.2539L198.674 32.084H205.061ZM218.889 25.4824C218.889 25.6126 218.843 25.694 218.752 25.7266C218.661 25.7526 218.544 25.7656 218.4 25.7656H212.941V35.2773C212.941 35.375 212.938 35.4661 212.932 35.5508C212.925 35.6354 212.906 35.7135 212.873 35.7852C212.847 35.8503 212.808 35.9023 212.756 35.9414C212.704 35.9805 212.629 36 212.531 36C212.362 36 212.248 35.9284 212.189 35.7852C212.137 35.6354 212.111 35.4661 212.111 35.2773V25.7656H206.643C206.499 25.7656 206.376 25.7526 206.271 25.7266C206.174 25.694 206.125 25.6126 206.125 25.4824C206.125 25.3848 206.148 25.3132 206.193 25.2676C206.239 25.2155 206.294 25.1797 206.359 25.1602C206.431 25.1406 206.509 25.1309 206.594 25.1309C206.685 25.1243 206.77 25.1211 206.848 25.1211H218.186C218.283 25.1211 218.374 25.1243 218.459 25.1309C218.544 25.1309 218.615 25.1406 218.674 25.1602C218.739 25.1797 218.791 25.2155 218.83 25.2676C218.869 25.3132 218.889 25.3848 218.889 25.4824ZM230.666 35.6582C230.666 35.7559 230.65 35.8275 230.617 35.873C230.585 35.9186 230.539 35.9512 230.48 35.9707C230.428 35.9902 230.363 36 230.285 36C230.207 36 230.119 36 230.021 36H220.9C220.835 36 220.786 35.9967 220.754 35.9902C220.721 35.9837 220.695 35.9674 220.676 35.9414C220.663 35.9154 220.653 35.8828 220.646 35.8438C220.646 35.7982 220.646 35.7363 220.646 35.6582V25.5801C220.646 25.4824 220.646 25.4043 220.646 25.3457C220.653 25.2871 220.666 25.2415 220.686 25.209C220.705 25.1764 220.738 25.1536 220.783 25.1406C220.835 25.1276 220.91 25.1211 221.008 25.1211H229.924C230.021 25.1211 230.113 25.1211 230.197 25.1211C230.282 25.1211 230.357 25.1309 230.422 25.1504C230.493 25.1699 230.549 25.2025 230.588 25.248C230.627 25.2936 230.646 25.3652 230.646 25.4629C230.646 25.541 230.627 25.6029 230.588 25.6484C230.549 25.6875 230.493 25.7168 230.422 25.7363C230.357 25.7559 230.282 25.7656 230.197 25.7656C230.113 25.7656 230.021 25.7656 229.924 25.7656H221.477V30.043H229.875C230.018 30.043 230.139 30.0625 230.236 30.1016C230.334 30.1406 230.383 30.2253 230.383 30.3555C230.383 30.4987 230.34 30.5931 230.256 30.6387C230.178 30.6842 230.074 30.707 229.943 30.707H221.477V35.3555H229.943C230.041 35.3555 230.132 35.3555 230.217 35.3555C230.301 35.3555 230.376 35.3652 230.441 35.3848C230.513 35.4043 230.568 35.4368 230.607 35.4824C230.646 35.5215 230.666 35.5801 230.666 35.6582Z" fill="black"/>
</svg>
