<svg width="80" height="21" viewBox="0 0 80 21" fill="none" xmlns="http://www.w3.org/2000/svg">
<path d="M33.01 5.5L28.435 16H26.515L21.925 5.5H24.04L27.535 13.6L31.06 5.5H33.01ZM36.9374 16.105C36.1274 16.105 35.3974 15.93 34.7474 15.58C34.0974 15.23 33.5874 14.745 33.2174 14.125C32.8574 13.495 32.6774 12.785 32.6774 11.995C32.6774 11.205 32.8574 10.5 33.2174 9.88C33.5874 9.26 34.0974 8.775 34.7474 8.425C35.3974 8.075 36.1274 7.9 36.9374 7.9C37.7574 7.9 38.4924 8.075 39.1424 8.425C39.7924 8.775 40.2974 9.26 40.6574 9.88C41.0274 10.5 41.2124 11.205 41.2124 11.995C41.2124 12.785 41.0274 13.495 40.6574 14.125C40.2974 14.745 39.7924 15.23 39.1424 15.58C38.4924 15.93 37.7574 16.105 36.9374 16.105ZM36.9374 14.5C37.6274 14.5 38.1974 14.27 38.6474 13.81C39.0974 13.35 39.3224 12.745 39.3224 11.995C39.3224 11.245 39.0974 10.64 38.6474 10.18C38.1974 9.72 37.6274 9.49 36.9374 9.49C36.2474 9.49 35.6774 9.72 35.2274 10.18C34.7874 10.64 34.5674 11.245 34.5674 11.995C34.5674 12.745 34.7874 13.35 35.2274 13.81C35.6774 14.27 36.2474 14.5 36.9374 14.5ZM43.0054 4.87H44.8804V16H43.0054V4.87ZM52.5518 15.565C52.3318 15.745 52.0618 15.88 51.7418 15.97C51.4318 16.06 51.1018 16.105 50.7518 16.105C49.8718 16.105 49.1918 15.875 48.7118 15.415C48.2318 14.955 47.9918 14.285 47.9918 13.405V9.55H46.6718V8.05H47.9918V6.22H49.8668V8.05H52.0118V9.55H49.8668V13.36C49.8668 13.75 49.9618 14.05 50.1518 14.26C50.3418 14.46 50.6168 14.56 50.9768 14.56C51.3968 14.56 51.7468 14.45 52.0268 14.23L52.5518 15.565ZM57.1543 7.9C58.3343 7.9 59.2343 8.185 59.8543 8.755C60.4843 9.315 60.7993 10.165 60.7993 11.305V16H59.0293V15.025C58.7993 15.375 58.4693 15.645 58.0393 15.835C57.6193 16.015 57.1093 16.105 56.5093 16.105C55.9093 16.105 55.3843 16.005 54.9343 15.805C54.4843 15.595 54.1343 15.31 53.8843 14.95C53.6443 14.58 53.5243 14.165 53.5243 13.705C53.5243 12.985 53.7893 12.41 54.3193 11.98C54.8593 11.54 55.7043 11.32 56.8543 11.32H58.9243V11.2C58.9243 10.64 58.7543 10.21 58.4143 9.91C58.0843 9.61 57.5893 9.46 56.9293 9.46C56.4793 9.46 56.0343 9.53 55.5943 9.67C55.1643 9.81 54.7993 10.005 54.4993 10.255L53.7643 8.89C54.1843 8.57 54.6893 8.325 55.2793 8.155C55.8693 7.985 56.4943 7.9 57.1543 7.9ZM56.8993 14.74C57.3693 14.74 57.7843 14.635 58.1443 14.425C58.5143 14.205 58.7743 13.895 58.9243 13.495V12.565H56.9893C55.9093 12.565 55.3693 12.92 55.3693 13.63C55.3693 13.97 55.5043 14.24 55.7743 14.44C56.0443 14.64 56.4193 14.74 56.8993 14.74ZM64.9906 9.16C65.5306 8.32 66.4806 7.9 67.8406 7.9V9.685C67.6806 9.655 67.5356 9.64 67.4056 9.64C66.6756 9.64 66.1056 9.855 65.6956 10.285C65.2856 10.705 65.0806 11.315 65.0806 12.115V16H63.2056V7.99H64.9906V9.16Z" fill="#212121"/>
<g clip-path="url(#clip0_167:9)">
<path d="M10 15.75L6 10.5L10 5.25" stroke="#212121" stroke-width="2" stroke-linecap="round" stroke-linejoin="round"/>
</g>
<defs>
<clipPath id="clip0_167:9">
<rect width="16" height="21" fill="white"/>
</clipPath>
</defs>
</svg>
