<svg width="72" height="38" viewBox="0 0 72 38" fill="none" xmlns="http://www.w3.org/2000/svg">
<path d="M60.4888 24.4816V22.9109C60.4888 22.0777 60.1423 21.2787 59.5255 20.6895C58.9087 20.1004 58.0722 19.7694 57.1999 19.7694H50.6221C49.7499 19.7694 48.9133 20.1004 48.2965 20.6895C47.6798 21.2787 47.3333 22.0777 47.3333 22.9109V24.4816" stroke="#00A1D5" stroke-width="2" stroke-linecap="round" stroke-linejoin="round"/>
<path d="M53.911 16.628C55.7274 16.628 57.1999 15.2215 57.1999 13.4866C57.1999 11.7516 55.7274 10.3451 53.911 10.3451C52.0946 10.3451 50.6221 11.7516 50.6221 13.4866C50.6221 15.2215 52.0946 16.628 53.911 16.628Z" stroke="#00A1D5" stroke-width="2" stroke-linecap="round" stroke-linejoin="round"/>
<path d="M71.5 18.9841C71.5 29.1266 63.4324 37.3327 53.5 37.3327C43.5676 37.3327 35.5 29.1266 35.5 18.9841C35.5 8.84157 43.5676 0.635456 53.5 0.635456C63.4324 0.635456 71.5 8.84157 71.5 18.9841Z" stroke="#00A1D5"/>
<path d="M3.76 19C4.65333 19 5.35333 19.2133 5.86 19.64C6.36667 20.0667 6.62 20.6533 6.62 21.4C6.62 22.1467 6.36667 22.7333 5.86 23.16C5.35333 23.58 4.65333 23.79 3.76 23.79H1.88V26H1.14V19H3.76ZM3.74 23.14C4.43333 23.14 4.96333 22.99 5.33 22.69C5.69667 22.3833 5.88 21.9533 5.88 21.4C5.88 20.8333 5.69667 20.4 5.33 20.1C4.96333 19.7933 4.43333 19.64 3.74 19.64H1.88V23.14H3.74ZM12.6208 23.59H8.22078C8.26078 24.1367 8.47078 24.58 8.85078 24.92C9.23078 25.2533 9.71078 25.42 10.2908 25.42C10.6174 25.42 10.9174 25.3633 11.1908 25.25C11.4641 25.13 11.7008 24.9567 11.9008 24.73L12.3008 25.19C12.0674 25.47 11.7741 25.6833 11.4208 25.83C11.0741 25.9767 10.6908 26.05 10.2708 26.05C9.73078 26.05 9.25078 25.9367 8.83078 25.71C8.41745 25.4767 8.09411 25.1567 7.86078 24.75C7.62745 24.3433 7.51078 23.8833 7.51078 23.37C7.51078 22.8567 7.62078 22.3967 7.84078 21.99C8.06745 21.5833 8.37411 21.2667 8.76078 21.04C9.15411 20.8133 9.59411 20.7 10.0808 20.7C10.5674 20.7 11.0041 20.8133 11.3908 21.04C11.7774 21.2667 12.0808 21.5833 12.3008 21.99C12.5208 22.39 12.6308 22.85 12.6308 23.37L12.6208 23.59ZM10.0808 21.31C9.57411 21.31 9.14745 21.4733 8.80078 21.8C8.46078 22.12 8.26745 22.54 8.22078 23.06H11.9508C11.9041 22.54 11.7074 22.12 11.3608 21.8C11.0208 21.4733 10.5941 21.31 10.0808 21.31ZM14.7559 21.77C14.9226 21.4167 15.1693 21.15 15.4959 20.97C15.8293 20.79 16.2393 20.7 16.7259 20.7V21.39L16.5559 21.38C16.0026 21.38 15.5693 21.55 15.2559 21.89C14.9426 22.23 14.7859 22.7067 14.7859 23.32V26H14.0759V20.74H14.7559V21.77ZM19.9761 19.13C19.6694 19.13 19.4361 19.2133 19.2761 19.38C19.1228 19.5467 19.0461 19.7933 19.0461 20.12V20.74H20.6661V21.34H19.0661V26H18.3561V21.34H17.4161V20.74H18.3561V20.09C18.3561 19.61 18.4928 19.23 18.7661 18.95C19.0461 18.67 19.4394 18.53 19.9461 18.53C20.1461 18.53 20.3394 18.56 20.5261 18.62C20.7128 18.6733 20.8694 18.7533 20.9961 18.86L20.7561 19.39C20.5494 19.2167 20.2894 19.13 19.9761 19.13ZM22.4261 20.74H23.1361V26H22.4261V20.74ZM22.7861 19.59C22.6394 19.59 22.5161 19.54 22.4161 19.44C22.3161 19.34 22.2661 19.22 22.2661 19.08C22.2661 18.9467 22.3161 18.83 22.4161 18.73C22.5161 18.63 22.6394 18.58 22.7861 18.58C22.9328 18.58 23.0561 18.63 23.1561 18.73C23.2561 18.8233 23.3061 18.9367 23.3061 19.07C23.3061 19.2167 23.2561 19.34 23.1561 19.44C23.0561 19.54 22.9328 19.59 22.7861 19.59ZM25.1209 18.58H25.8309V26H25.1209V18.58Z" fill="#00A1D5"/>
</svg>
