<svg width="47" height="47" viewBox="0 0 47 47" fill="none" xmlns="http://www.w3.org/2000/svg">
<path d="M32.3779 30.3542V28.3959C32.3779 27.3571 31.9377 26.3609 31.1542 25.6264C30.3707 24.8918 29.3081 24.4792 28.2001 24.4792H19.8445C18.7365 24.4792 17.6739 24.8918 16.8904 25.6264C16.1069 26.3609 15.6667 27.3571 15.6667 28.3959V30.3542" stroke="white" stroke-width="2" stroke-linecap="round" stroke-linejoin="round"/>
<path d="M24.0223 20.5625C26.3296 20.5625 28.2 18.809 28.2 16.6459C28.2 14.4827 26.3296 12.7292 24.0223 12.7292C21.7149 12.7292 19.8445 14.4827 19.8445 16.6459C19.8445 18.809 21.7149 20.5625 24.0223 20.5625Z" stroke="white" stroke-width="2" stroke-linecap="round" stroke-linejoin="round"/>
<circle cx="23.5" cy="23.5" r="23" stroke="white"/>
</svg>
