<svg width="37" height="38" viewBox="0 0 37 38" fill="none" xmlns="http://www.w3.org/2000/svg">
<path d="M25.4889 24.5417V22.9583C25.4889 22.1185 25.1424 21.313 24.5256 20.7192C23.9088 20.1253 23.0723 19.7917 22.2 19.7917H15.6223C14.75 19.7917 13.9135 20.1253 13.2967 20.7192C12.6799 21.313 12.3334 22.1185 12.3334 22.9583V24.5417" stroke="#00A1D5" stroke-width="2" stroke-linecap="round" stroke-linejoin="round"/>
<path d="M18.9111 16.625C20.7275 16.625 22.2 15.2072 22.2 13.4583C22.2 11.7094 20.7275 10.2917 18.9111 10.2917C17.0947 10.2917 15.6222 11.7094 15.6222 13.4583C15.6222 15.2072 17.0947 16.625 18.9111 16.625Z" stroke="#00A1D5" stroke-width="2" stroke-linecap="round" stroke-linejoin="round"/>
<path d="M36.5 19C36.5 29.2299 28.4286 37.5 18.5 37.5C8.57136 37.5 0.5 29.2299 0.5 19C0.5 8.77008 8.57136 0.5 18.5 0.5C28.4286 0.5 36.5 8.77008 36.5 19Z" stroke="#00A1D5"/>
</svg>
