<svg width="8" height="8" viewBox="0 0 8 8" fill="none" xmlns="http://www.w3.org/2000/svg">
<path d="M1 2H1.66667H7" stroke="#212121" stroke-linecap="round" stroke-linejoin="round"/>
<path d="M2.66669 1.99999V1.33332C2.66669 1.15651 2.73693 0.986943 2.86195 0.861919C2.98697 0.736894 3.15654 0.666656 3.33335 0.666656H4.66669C4.8435 0.666656 5.01307 0.736894 5.13809 0.861919C5.26312 0.986943 5.33335 1.15651 5.33335 1.33332V1.99999M6.33336 1.99999V6.66666C6.33336 6.84347 6.26312 7.01304 6.13809 7.13806C6.01307 7.26309 5.8435 7.33332 5.66669 7.33332H2.33335C2.15654 7.33332 1.98697 7.26309 1.86195 7.13806C1.73692 7.01304 1.66669 6.84347 1.66669 6.66666V1.99999H6.33336Z" stroke="#212121" stroke-linecap="round" stroke-linejoin="round"/>
</svg>
